# xmcd
#
# Track frame offsets: 
#        150
#        14435
#        30382
#        48312
#        64212
#        77300
#        92912
#        106900
#        120387
#        133250
#        150900
#        168412
#
# Disc length: 2435 seconds
#
# Revision: 2
# Processed by: cddbd v1.5.2PL0 Copyright (c) Steve Scherf et al.
# Submitted via: ExactAudioCopy v0.99pb4
#
DISCID=8909810c
DTITLE=The Mavis's - Venus Returning
DYEAR=1996
DGENRE=Pop
TTITLE0=Moon Drone Gold
TTITLE1=Thunder
TTITLE2=Box
TTITLE3=Giant
TTITLE4=Do You Have A Brother?
TTITLE5=Supa Star
TTITLE6=See-Saw
TTITLE7=The Land That Time Forgot
TTITLE8=Sleep
TTITLE9=Lost
TTITLE10=Ribcage
TTITLE11=Ghosts Of The Night
EXTD=
EXTT0=
EXTT1=
EXTT2=
EXTT3=
EXTT4=
EXTT5=
EXTT6=
EXTT7=
EXTT8=
EXTT9=
EXTT10=
EXTT11=
PLAYORDER=
